<mxfile host="Electron" modified="2024-04-16T05:04:59.382Z" agent="Mozilla/5.0 (X11; Linux x86_64) AppleWebKit/537.36 (KHTML, like Gecko) draw.io/24.2.5 Chrome/120.0.6099.109 Electron/28.1.0 Safari/537.36" etag="v6eFIIzgBIxtz3UhbaPP" version="24.2.5" type="device">
  <diagram id="C5RBs43oDa-KdzZeNtuy" name="Page-1">
    <mxGraphModel dx="728" dy="1034" grid="1" gridSize="10" guides="1" tooltips="1" connect="1" arrows="1" fold="1" page="1" pageScale="1" pageWidth="960" pageHeight="570" math="0" shadow="0">
      <root>
        <mxCell id="WIyWlLk6GJQsqaUBKTNV-0" />
        <mxCell id="WIyWlLk6GJQsqaUBKTNV-1" parent="WIyWlLk6GJQsqaUBKTNV-0" />
        <mxCell id="oAeWeOyywlavheIQp_EQ-43" value="&lt;i&gt;Store&lt;/i&gt;" style="swimlane;fontStyle=1;align=center;verticalAlign=top;childLayout=stackLayout;horizontal=1;startSize=30;horizontalStack=0;resizeParent=1;resizeParentMax=0;resizeLast=0;collapsible=0;marginBottom=0;whiteSpace=wrap;html=1;" parent="WIyWlLk6GJQsqaUBKTNV-1" vertex="1">
          <mxGeometry x="360" y="40" width="240" height="348" as="geometry" />
        </mxCell>
        <mxCell id="oAeWeOyywlavheIQp_EQ-44" value="- name: str" style="text;strokeColor=none;fillColor=none;align=left;verticalAlign=middle;spacingLeft=4;spacingRight=4;overflow=hidden;rotatable=0;points=[[0,0.5],[1,0.5]];portConstraint=eastwest;whiteSpace=wrap;html=1;fontSize=11;" parent="oAeWeOyywlavheIQp_EQ-43" vertex="1">
          <mxGeometry y="30" width="240" height="20" as="geometry" />
        </mxCell>
        <mxCell id="rgos0depHT-uJ3BXyTeP-0" value="- address: str" style="text;strokeColor=none;fillColor=none;align=left;verticalAlign=middle;spacingLeft=4;spacingRight=4;overflow=hidden;rotatable=0;points=[[0,0.5],[1,0.5]];portConstraint=eastwest;whiteSpace=wrap;html=1;fontSize=11;" parent="oAeWeOyywlavheIQp_EQ-43" vertex="1">
          <mxGeometry y="50" width="240" height="20" as="geometry" />
        </mxCell>
        <mxCell id="rgos0depHT-uJ3BXyTeP-2" value="- status: str" style="text;strokeColor=none;fillColor=none;align=left;verticalAlign=middle;spacingLeft=4;spacingRight=4;overflow=hidden;rotatable=0;points=[[0,0.5],[1,0.5]];portConstraint=eastwest;whiteSpace=wrap;html=1;fontSize=11;" parent="oAeWeOyywlavheIQp_EQ-43" vertex="1">
          <mxGeometry y="70" width="240" height="20" as="geometry" />
        </mxCell>
        <mxCell id="rgos0depHT-uJ3BXyTeP-3" value="- sales_tax_pct: float" style="text;strokeColor=none;fillColor=none;align=left;verticalAlign=middle;spacingLeft=4;spacingRight=4;overflow=hidden;rotatable=0;points=[[0,0.5],[1,0.5]];portConstraint=eastwest;whiteSpace=wrap;html=1;fontSize=11;" parent="oAeWeOyywlavheIQp_EQ-43" vertex="1">
          <mxGeometry y="90" width="240" height="20" as="geometry" />
        </mxCell>
        <mxCell id="oAeWeOyywlavheIQp_EQ-49" value="" style="line;strokeWidth=1;fillColor=none;align=left;verticalAlign=middle;spacingTop=-1;spacingLeft=3;spacingRight=3;rotatable=0;labelPosition=right;points=[];portConstraint=eastwest;strokeColor=inherit;" parent="oAeWeOyywlavheIQp_EQ-43" vertex="1">
          <mxGeometry y="110" width="240" height="8" as="geometry" />
        </mxCell>
        <mxCell id="oAeWeOyywlavheIQp_EQ-51" value="+ Store(name: str, address: str, status: str, sales_tax_pct: float)" style="text;strokeColor=none;fillColor=none;align=left;verticalAlign=middle;spacingLeft=4;spacingRight=4;overflow=hidden;rotatable=0;points=[[0,0.5],[1,0.5]];portConstraint=eastwest;whiteSpace=wrap;html=1;fontSize=11;" parent="oAeWeOyywlavheIQp_EQ-43" vertex="1">
          <mxGeometry y="118" width="240" height="32" as="geometry" />
        </mxCell>
        <mxCell id="bbliB93K8uDW3tGXe22l-0" value="+&amp;nbsp;name(&lt;span style=&quot;background-color: initial;&quot;&gt;): str&lt;/span&gt;" style="text;strokeColor=none;fillColor=none;align=left;verticalAlign=middle;spacingLeft=4;spacingRight=4;overflow=hidden;rotatable=0;points=[[0,0.5],[1,0.5]];portConstraint=eastwest;whiteSpace=wrap;html=1;fontSize=11;" parent="oAeWeOyywlavheIQp_EQ-43" vertex="1">
          <mxGeometry y="150" width="240" height="18" as="geometry" />
        </mxCell>
        <mxCell id="oAeWeOyywlavheIQp_EQ-54" value="+&amp;nbsp;name(name: str&lt;span style=&quot;background-color: initial;&quot;&gt;)&lt;/span&gt;" style="text;strokeColor=none;fillColor=none;align=left;verticalAlign=middle;spacingLeft=4;spacingRight=4;overflow=hidden;rotatable=0;points=[[0,0.5],[1,0.5]];portConstraint=eastwest;whiteSpace=wrap;html=1;fontSize=11;" parent="oAeWeOyywlavheIQp_EQ-43" vertex="1">
          <mxGeometry y="168" width="240" height="18" as="geometry" />
        </mxCell>
        <mxCell id="bbliB93K8uDW3tGXe22l-1" value="+ address(&lt;span style=&quot;background-color: initial;&quot;&gt;): str&lt;/span&gt;" style="text;strokeColor=none;fillColor=none;align=left;verticalAlign=middle;spacingLeft=4;spacingRight=4;overflow=hidden;rotatable=0;points=[[0,0.5],[1,0.5]];portConstraint=eastwest;whiteSpace=wrap;html=1;fontSize=11;" parent="oAeWeOyywlavheIQp_EQ-43" vertex="1">
          <mxGeometry y="186" width="240" height="18" as="geometry" />
        </mxCell>
        <mxCell id="oAeWeOyywlavheIQp_EQ-55" value="+&amp;nbsp;address(address: str)" style="text;strokeColor=none;fillColor=none;align=left;verticalAlign=middle;spacingLeft=4;spacingRight=4;overflow=hidden;rotatable=0;points=[[0,0.5],[1,0.5]];portConstraint=eastwest;whiteSpace=wrap;html=1;fontSize=11;" parent="oAeWeOyywlavheIQp_EQ-43" vertex="1">
          <mxGeometry y="204" width="240" height="18" as="geometry" />
        </mxCell>
        <mxCell id="bbliB93K8uDW3tGXe22l-2" value="+ status(&lt;span style=&quot;background-color: initial;&quot;&gt;): str&lt;/span&gt;" style="text;strokeColor=none;fillColor=none;align=left;verticalAlign=middle;spacingLeft=4;spacingRight=4;overflow=hidden;rotatable=0;points=[[0,0.5],[1,0.5]];portConstraint=eastwest;whiteSpace=wrap;html=1;fontSize=11;" parent="oAeWeOyywlavheIQp_EQ-43" vertex="1">
          <mxGeometry y="222" width="240" height="18" as="geometry" />
        </mxCell>
        <mxCell id="oAeWeOyywlavheIQp_EQ-56" value="+ status(status: str)" style="text;strokeColor=none;fillColor=none;align=left;verticalAlign=middle;spacingLeft=4;spacingRight=4;overflow=hidden;rotatable=0;points=[[0,0.5],[1,0.5]];portConstraint=eastwest;whiteSpace=wrap;html=1;fontSize=11;" parent="oAeWeOyywlavheIQp_EQ-43" vertex="1">
          <mxGeometry y="240" width="240" height="18" as="geometry" />
        </mxCell>
        <mxCell id="bbliB93K8uDW3tGXe22l-3" value="+&amp;nbsp;sales_tax_pct(&lt;span style=&quot;background-color: initial;&quot;&gt;): float&lt;/span&gt;" style="text;strokeColor=none;fillColor=none;align=left;verticalAlign=middle;spacingLeft=4;spacingRight=4;overflow=hidden;rotatable=0;points=[[0,0.5],[1,0.5]];portConstraint=eastwest;whiteSpace=wrap;html=1;fontSize=11;" parent="oAeWeOyywlavheIQp_EQ-43" vertex="1">
          <mxGeometry y="258" width="240" height="18" as="geometry" />
        </mxCell>
        <mxCell id="rgos0depHT-uJ3BXyTeP-5" value="+&amp;nbsp;sales_tax_pct(sales_tax_pct: float)" style="text;strokeColor=none;fillColor=none;align=left;verticalAlign=middle;spacingLeft=4;spacingRight=4;overflow=hidden;rotatable=0;points=[[0,0.5],[1,0.5]];portConstraint=eastwest;whiteSpace=wrap;html=1;fontSize=11;" parent="oAeWeOyywlavheIQp_EQ-43" vertex="1">
          <mxGeometry y="276" width="240" height="18" as="geometry" />
        </mxCell>
        <mxCell id="9212bw_EbjLoRZrMJDlf-12" value="+ is_store_open(&lt;span style=&quot;background-color: initial;&quot;&gt;): bool&lt;/span&gt;" style="text;strokeColor=none;fillColor=none;align=left;verticalAlign=middle;spacingLeft=4;spacingRight=4;overflow=hidden;rotatable=0;points=[[0,0.5],[1,0.5]];portConstraint=eastwest;whiteSpace=wrap;html=1;fontSize=11;" parent="oAeWeOyywlavheIQp_EQ-43" vertex="1">
          <mxGeometry y="294" width="240" height="18" as="geometry" />
        </mxCell>
        <mxCell id="bbliB93K8uDW3tGXe22l-5" value="+&amp;nbsp;calculate_total_sales_tax(&lt;span style=&quot;background-color: initial;&quot;&gt;): float&lt;/span&gt;" style="text;strokeColor=none;fillColor=none;align=left;verticalAlign=middle;spacingLeft=4;spacingRight=4;overflow=hidden;rotatable=0;points=[[0,0.5],[1,0.5]];portConstraint=eastwest;whiteSpace=wrap;html=1;fontSize=11;fontStyle=2" parent="oAeWeOyywlavheIQp_EQ-43" vertex="1">
          <mxGeometry y="312" width="240" height="18" as="geometry" />
        </mxCell>
        <mxCell id="oAeWeOyywlavheIQp_EQ-57" value="+&amp;nbsp;calculate_total_sales(&lt;span style=&quot;background-color: initial;&quot;&gt;): float&lt;/span&gt;" style="text;strokeColor=none;fillColor=none;align=left;verticalAlign=middle;spacingLeft=4;spacingRight=4;overflow=hidden;rotatable=0;points=[[0,0.5],[1,0.5]];portConstraint=eastwest;whiteSpace=wrap;html=1;fontSize=11;fontStyle=2" parent="oAeWeOyywlavheIQp_EQ-43" vertex="1">
          <mxGeometry y="330" width="240" height="18" as="geometry" />
        </mxCell>
        <mxCell id="fwNFfMyw5ERBlZHOY2xI-47" style="edgeStyle=orthogonalEdgeStyle;rounded=0;orthogonalLoop=1;jettySize=auto;html=1;exitX=0.5;exitY=1;exitDx=0;exitDy=0;entryX=0;entryY=0.5;entryDx=0;entryDy=0;dashed=1;" parent="WIyWlLk6GJQsqaUBKTNV-1" source="fwNFfMyw5ERBlZHOY2xI-1" target="fwNFfMyw5ERBlZHOY2xI-46" edge="1">
          <mxGeometry relative="1" as="geometry" />
        </mxCell>
        <mxCell id="fwNFfMyw5ERBlZHOY2xI-1" value="Restaurant" style="swimlane;fontStyle=1;align=center;verticalAlign=top;childLayout=stackLayout;horizontal=1;startSize=30;horizontalStack=0;resizeParent=1;resizeParentMax=0;resizeLast=0;collapsible=0;marginBottom=0;whiteSpace=wrap;html=1;" parent="WIyWlLk6GJQsqaUBKTNV-1" vertex="1">
          <mxGeometry x="40" y="40" width="240" height="358" as="geometry" />
        </mxCell>
        <mxCell id="fwNFfMyw5ERBlZHOY2xI-2" value="- total_served: int" style="text;strokeColor=none;fillColor=none;align=left;verticalAlign=middle;spacingLeft=4;spacingRight=4;overflow=hidden;rotatable=0;points=[[0,0.5],[1,0.5]];portConstraint=eastwest;whiteSpace=wrap;html=1;fontSize=11;" parent="fwNFfMyw5ERBlZHOY2xI-1" vertex="1">
          <mxGeometry y="30" width="240" height="20" as="geometry" />
        </mxCell>
        <mxCell id="fwNFfMyw5ERBlZHOY2xI-3" value="- max_occupancy: int" style="text;strokeColor=none;fillColor=none;align=left;verticalAlign=middle;spacingLeft=4;spacingRight=4;overflow=hidden;rotatable=0;points=[[0,0.5],[1,0.5]];portConstraint=eastwest;whiteSpace=wrap;html=1;fontSize=11;" parent="fwNFfMyw5ERBlZHOY2xI-1" vertex="1">
          <mxGeometry y="50" width="240" height="20" as="geometry" />
        </mxCell>
        <mxCell id="fwNFfMyw5ERBlZHOY2xI-4" value="- current_occupancy: int" style="text;strokeColor=none;fillColor=none;align=left;verticalAlign=middle;spacingLeft=4;spacingRight=4;overflow=hidden;rotatable=0;points=[[0,0.5],[1,0.5]];portConstraint=eastwest;whiteSpace=wrap;html=1;fontSize=11;" parent="fwNFfMyw5ERBlZHOY2xI-1" vertex="1">
          <mxGeometry y="70" width="240" height="20" as="geometry" />
        </mxCell>
        <mxCell id="fwNFfMyw5ERBlZHOY2xI-5" value="- price_per_person: float" style="text;strokeColor=none;fillColor=none;align=left;verticalAlign=middle;spacingLeft=4;spacingRight=4;overflow=hidden;rotatable=0;points=[[0,0.5],[1,0.5]];portConstraint=eastwest;whiteSpace=wrap;html=1;fontSize=11;" parent="fwNFfMyw5ERBlZHOY2xI-1" vertex="1">
          <mxGeometry y="90" width="240" height="20" as="geometry" />
        </mxCell>
        <mxCell id="fwNFfMyw5ERBlZHOY2xI-6" value="" style="line;strokeWidth=1;fillColor=none;align=left;verticalAlign=middle;spacingTop=-1;spacingLeft=3;spacingRight=3;rotatable=0;labelPosition=right;points=[];portConstraint=eastwest;strokeColor=inherit;" parent="fwNFfMyw5ERBlZHOY2xI-1" vertex="1">
          <mxGeometry y="110" width="240" height="8" as="geometry" />
        </mxCell>
        <mxCell id="fwNFfMyw5ERBlZHOY2xI-7" value="+ Restaurant(name: str, address: str, max_occupancy: int,&amp;nbsp;price_per_person: float, status: str, sales_tax_pct: float)" style="text;strokeColor=none;fillColor=none;align=left;verticalAlign=middle;spacingLeft=4;spacingRight=4;overflow=hidden;rotatable=0;points=[[0,0.5],[1,0.5]];portConstraint=eastwest;whiteSpace=wrap;html=1;fontSize=11;" parent="fwNFfMyw5ERBlZHOY2xI-1" vertex="1">
          <mxGeometry y="118" width="240" height="42" as="geometry" />
        </mxCell>
        <mxCell id="fwNFfMyw5ERBlZHOY2xI-8" value="+&amp;nbsp;max_occupancy(&lt;span style=&quot;background-color: initial;&quot;&gt;): int&lt;/span&gt;" style="text;strokeColor=none;fillColor=none;align=left;verticalAlign=middle;spacingLeft=4;spacingRight=4;overflow=hidden;rotatable=0;points=[[0,0.5],[1,0.5]];portConstraint=eastwest;whiteSpace=wrap;html=1;fontSize=11;" parent="fwNFfMyw5ERBlZHOY2xI-1" vertex="1">
          <mxGeometry y="160" width="240" height="18" as="geometry" />
        </mxCell>
        <mxCell id="fwNFfMyw5ERBlZHOY2xI-9" value="+&amp;nbsp;max_occupancy(max_occupancy: int&lt;span style=&quot;background-color: initial;&quot;&gt;)&lt;/span&gt;" style="text;strokeColor=none;fillColor=none;align=left;verticalAlign=middle;spacingLeft=4;spacingRight=4;overflow=hidden;rotatable=0;points=[[0,0.5],[1,0.5]];portConstraint=eastwest;whiteSpace=wrap;html=1;fontSize=11;" parent="fwNFfMyw5ERBlZHOY2xI-1" vertex="1">
          <mxGeometry y="178" width="240" height="18" as="geometry" />
        </mxCell>
        <mxCell id="fwNFfMyw5ERBlZHOY2xI-19" value="+&amp;nbsp;current_occupancy(&lt;span style=&quot;background-color: initial;&quot;&gt;): int&lt;/span&gt;" style="text;strokeColor=none;fillColor=none;align=left;verticalAlign=middle;spacingLeft=4;spacingRight=4;overflow=hidden;rotatable=0;points=[[0,0.5],[1,0.5]];portConstraint=eastwest;whiteSpace=wrap;html=1;fontSize=11;" parent="fwNFfMyw5ERBlZHOY2xI-1" vertex="1">
          <mxGeometry y="196" width="240" height="18" as="geometry" />
        </mxCell>
        <mxCell id="fwNFfMyw5ERBlZHOY2xI-10" value="+ price_per_person(&lt;span style=&quot;background-color: initial;&quot;&gt;): float&lt;/span&gt;" style="text;strokeColor=none;fillColor=none;align=left;verticalAlign=middle;spacingLeft=4;spacingRight=4;overflow=hidden;rotatable=0;points=[[0,0.5],[1,0.5]];portConstraint=eastwest;whiteSpace=wrap;html=1;fontSize=11;" parent="fwNFfMyw5ERBlZHOY2xI-1" vertex="1">
          <mxGeometry y="214" width="240" height="18" as="geometry" />
        </mxCell>
        <mxCell id="fwNFfMyw5ERBlZHOY2xI-11" value="+&amp;nbsp;price_per_person(price_per_person: float)" style="text;strokeColor=none;fillColor=none;align=left;verticalAlign=middle;spacingLeft=4;spacingRight=4;overflow=hidden;rotatable=0;points=[[0,0.5],[1,0.5]];portConstraint=eastwest;whiteSpace=wrap;html=1;fontSize=11;" parent="fwNFfMyw5ERBlZHOY2xI-1" vertex="1">
          <mxGeometry y="232" width="240" height="18" as="geometry" />
        </mxCell>
        <mxCell id="fwNFfMyw5ERBlZHOY2xI-12" value="+ seat_patrons(patrons: int&lt;span style=&quot;background-color: initial;&quot;&gt;): bool&lt;/span&gt;" style="text;strokeColor=none;fillColor=none;align=left;verticalAlign=middle;spacingLeft=4;spacingRight=4;overflow=hidden;rotatable=0;points=[[0,0.5],[1,0.5]];portConstraint=eastwest;whiteSpace=wrap;html=1;fontSize=11;" parent="fwNFfMyw5ERBlZHOY2xI-1" vertex="1">
          <mxGeometry y="250" width="240" height="18" as="geometry" />
        </mxCell>
        <mxCell id="fwNFfMyw5ERBlZHOY2xI-13" value="+ serve_patrons(patrons: int&lt;span style=&quot;background-color: initial;&quot;&gt;): int&lt;/span&gt;" style="text;strokeColor=none;fillColor=none;align=left;verticalAlign=middle;spacingLeft=4;spacingRight=4;overflow=hidden;rotatable=0;points=[[0,0.5],[1,0.5]];portConstraint=eastwest;whiteSpace=wrap;html=1;fontSize=11;" parent="fwNFfMyw5ERBlZHOY2xI-1" vertex="1">
          <mxGeometry y="268" width="240" height="18" as="geometry" />
        </mxCell>
        <mxCell id="fwNFfMyw5ERBlZHOY2xI-14" value="+ checkout_patrons(patrons: int&lt;span style=&quot;background-color: initial;&quot;&gt;): int&lt;/span&gt;" style="text;strokeColor=none;fillColor=none;align=left;verticalAlign=middle;spacingLeft=4;spacingRight=4;overflow=hidden;rotatable=0;points=[[0,0.5],[1,0.5]];portConstraint=eastwest;whiteSpace=wrap;html=1;fontSize=11;" parent="fwNFfMyw5ERBlZHOY2xI-1" vertex="1">
          <mxGeometry y="286" width="240" height="18" as="geometry" />
        </mxCell>
        <mxCell id="fwNFfMyw5ERBlZHOY2xI-17" value="+&amp;nbsp;calculate_total_sales_tax(&lt;span style=&quot;background-color: initial;&quot;&gt;): float&lt;/span&gt;" style="text;strokeColor=none;fillColor=none;align=left;verticalAlign=middle;spacingLeft=4;spacingRight=4;overflow=hidden;rotatable=0;points=[[0,0.5],[1,0.5]];portConstraint=eastwest;whiteSpace=wrap;html=1;fontSize=11;fontStyle=0" parent="fwNFfMyw5ERBlZHOY2xI-1" vertex="1">
          <mxGeometry y="304" width="240" height="18" as="geometry" />
        </mxCell>
        <mxCell id="fwNFfMyw5ERBlZHOY2xI-18" value="+&amp;nbsp;calculate_total_sales(&lt;span style=&quot;background-color: initial;&quot;&gt;): float&lt;/span&gt;" style="text;strokeColor=none;fillColor=none;align=left;verticalAlign=middle;spacingLeft=4;spacingRight=4;overflow=hidden;rotatable=0;points=[[0,0.5],[1,0.5]];portConstraint=eastwest;whiteSpace=wrap;html=1;fontSize=11;fontStyle=0" parent="fwNFfMyw5ERBlZHOY2xI-1" vertex="1">
          <mxGeometry y="322" width="240" height="18" as="geometry" />
        </mxCell>
        <mxCell id="xXUNyZjyJAeeUV8fEWaD-0" value="- who(patrons: int&lt;span style=&quot;background-color: initial;&quot;&gt;): str&lt;/span&gt;" style="text;strokeColor=none;fillColor=none;align=left;verticalAlign=middle;spacingLeft=4;spacingRight=4;overflow=hidden;rotatable=0;points=[[0,0.5],[1,0.5]];portConstraint=eastwest;whiteSpace=wrap;html=1;fontSize=11;fontStyle=4" vertex="1" parent="fwNFfMyw5ERBlZHOY2xI-1">
          <mxGeometry y="340" width="240" height="18" as="geometry" />
        </mxCell>
        <mxCell id="fwNFfMyw5ERBlZHOY2xI-48" style="edgeStyle=orthogonalEdgeStyle;rounded=0;orthogonalLoop=1;jettySize=auto;html=1;exitX=0.5;exitY=1;exitDx=0;exitDy=0;entryX=1;entryY=0.5;entryDx=0;entryDy=0;dashed=1;" parent="WIyWlLk6GJQsqaUBKTNV-1" source="fwNFfMyw5ERBlZHOY2xI-20" target="fwNFfMyw5ERBlZHOY2xI-46" edge="1">
          <mxGeometry relative="1" as="geometry" />
        </mxCell>
        <mxCell id="fwNFfMyw5ERBlZHOY2xI-20" value="GroceryStore" style="swimlane;fontStyle=1;align=center;verticalAlign=top;childLayout=stackLayout;horizontal=1;startSize=30;horizontalStack=0;resizeParent=1;resizeParentMax=0;resizeLast=0;collapsible=0;marginBottom=0;whiteSpace=wrap;html=1;" parent="WIyWlLk6GJQsqaUBKTNV-1" vertex="1">
          <mxGeometry x="680" y="40" width="240" height="218" as="geometry" />
        </mxCell>
        <mxCell id="fwNFfMyw5ERBlZHOY2xI-21" value="- total_revenue: float" style="text;strokeColor=none;fillColor=none;align=left;verticalAlign=middle;spacingLeft=4;spacingRight=4;overflow=hidden;rotatable=0;points=[[0,0.5],[1,0.5]];portConstraint=eastwest;whiteSpace=wrap;html=1;fontSize=11;" parent="fwNFfMyw5ERBlZHOY2xI-20" vertex="1">
          <mxGeometry y="30" width="240" height="20" as="geometry" />
        </mxCell>
        <mxCell id="fwNFfMyw5ERBlZHOY2xI-22" value="- store_type: str" style="text;strokeColor=none;fillColor=none;align=left;verticalAlign=middle;spacingLeft=4;spacingRight=4;overflow=hidden;rotatable=0;points=[[0,0.5],[1,0.5]];portConstraint=eastwest;whiteSpace=wrap;html=1;fontSize=11;" parent="fwNFfMyw5ERBlZHOY2xI-20" vertex="1">
          <mxGeometry y="50" width="240" height="20" as="geometry" />
        </mxCell>
        <mxCell id="fwNFfMyw5ERBlZHOY2xI-25" value="" style="line;strokeWidth=1;fillColor=none;align=left;verticalAlign=middle;spacingTop=-1;spacingLeft=3;spacingRight=3;rotatable=0;labelPosition=right;points=[];portConstraint=eastwest;strokeColor=inherit;" parent="fwNFfMyw5ERBlZHOY2xI-20" vertex="1">
          <mxGeometry y="70" width="240" height="8" as="geometry" />
        </mxCell>
        <mxCell id="fwNFfMyw5ERBlZHOY2xI-26" value="+ Store(name: str, address: str, status: str, sales_tax_pct: float, store_type: str)" style="text;strokeColor=none;fillColor=none;align=left;verticalAlign=middle;spacingLeft=4;spacingRight=4;overflow=hidden;rotatable=0;points=[[0,0.5],[1,0.5]];portConstraint=eastwest;whiteSpace=wrap;html=1;fontSize=11;" parent="fwNFfMyw5ERBlZHOY2xI-20" vertex="1">
          <mxGeometry y="78" width="240" height="32" as="geometry" />
        </mxCell>
        <mxCell id="fwNFfMyw5ERBlZHOY2xI-27" value="+&amp;nbsp;store_type(&lt;span style=&quot;background-color: initial;&quot;&gt;): str&lt;/span&gt;" style="text;strokeColor=none;fillColor=none;align=left;verticalAlign=middle;spacingLeft=4;spacingRight=4;overflow=hidden;rotatable=0;points=[[0,0.5],[1,0.5]];portConstraint=eastwest;whiteSpace=wrap;html=1;fontSize=11;" parent="fwNFfMyw5ERBlZHOY2xI-20" vertex="1">
          <mxGeometry y="110" width="240" height="18" as="geometry" />
        </mxCell>
        <mxCell id="fwNFfMyw5ERBlZHOY2xI-28" value="+ store_type(store_type: str&lt;span style=&quot;background-color: initial;&quot;&gt;)&lt;/span&gt;" style="text;strokeColor=none;fillColor=none;align=left;verticalAlign=middle;spacingLeft=4;spacingRight=4;overflow=hidden;rotatable=0;points=[[0,0.5],[1,0.5]];portConstraint=eastwest;whiteSpace=wrap;html=1;fontSize=11;" parent="fwNFfMyw5ERBlZHOY2xI-20" vertex="1">
          <mxGeometry y="128" width="240" height="18" as="geometry" />
        </mxCell>
        <mxCell id="fwNFfMyw5ERBlZHOY2xI-29" value="+&amp;nbsp;current_occupancy(&lt;span style=&quot;background-color: initial;&quot;&gt;): int&lt;/span&gt;" style="text;strokeColor=none;fillColor=none;align=left;verticalAlign=middle;spacingLeft=4;spacingRight=4;overflow=hidden;rotatable=0;points=[[0,0.5],[1,0.5]];portConstraint=eastwest;whiteSpace=wrap;html=1;fontSize=11;" parent="fwNFfMyw5ERBlZHOY2xI-20" vertex="1">
          <mxGeometry y="146" width="240" height="18" as="geometry" />
        </mxCell>
        <mxCell id="fwNFfMyw5ERBlZHOY2xI-30" value="+ sell_item(qty: int, price: float&lt;span style=&quot;background-color: initial;&quot;&gt;): float&lt;/span&gt;" style="text;strokeColor=none;fillColor=none;align=left;verticalAlign=middle;spacingLeft=4;spacingRight=4;overflow=hidden;rotatable=0;points=[[0,0.5],[1,0.5]];portConstraint=eastwest;whiteSpace=wrap;html=1;fontSize=11;" parent="fwNFfMyw5ERBlZHOY2xI-20" vertex="1">
          <mxGeometry y="164" width="240" height="18" as="geometry" />
        </mxCell>
        <mxCell id="fwNFfMyw5ERBlZHOY2xI-35" value="+&amp;nbsp;calculate_total_sales_tax(&lt;span style=&quot;background-color: initial;&quot;&gt;): float&lt;/span&gt;" style="text;strokeColor=none;fillColor=none;align=left;verticalAlign=middle;spacingLeft=4;spacingRight=4;overflow=hidden;rotatable=0;points=[[0,0.5],[1,0.5]];portConstraint=eastwest;whiteSpace=wrap;html=1;fontSize=11;fontStyle=0" parent="fwNFfMyw5ERBlZHOY2xI-20" vertex="1">
          <mxGeometry y="182" width="240" height="18" as="geometry" />
        </mxCell>
        <mxCell id="fwNFfMyw5ERBlZHOY2xI-36" value="+&amp;nbsp;calculate_total_sales(&lt;span style=&quot;background-color: initial;&quot;&gt;): float&lt;/span&gt;" style="text;strokeColor=none;fillColor=none;align=left;verticalAlign=middle;spacingLeft=4;spacingRight=4;overflow=hidden;rotatable=0;points=[[0,0.5],[1,0.5]];portConstraint=eastwest;whiteSpace=wrap;html=1;fontSize=11;fontStyle=0" parent="fwNFfMyw5ERBlZHOY2xI-20" vertex="1">
          <mxGeometry y="200" width="240" height="18" as="geometry" />
        </mxCell>
        <mxCell id="fwNFfMyw5ERBlZHOY2xI-43" style="edgeStyle=orthogonalEdgeStyle;rounded=0;orthogonalLoop=1;jettySize=auto;html=1;exitX=0;exitY=0.5;exitDx=0;exitDy=0;entryX=0.999;entryY=0.37;entryDx=0;entryDy=0;entryPerimeter=0;" parent="WIyWlLk6GJQsqaUBKTNV-1" source="oAeWeOyywlavheIQp_EQ-51" target="fwNFfMyw5ERBlZHOY2xI-7" edge="1">
          <mxGeometry relative="1" as="geometry" />
        </mxCell>
        <mxCell id="fwNFfMyw5ERBlZHOY2xI-44" style="edgeStyle=orthogonalEdgeStyle;rounded=0;orthogonalLoop=1;jettySize=auto;html=1;exitX=1;exitY=0.5;exitDx=0;exitDy=0;entryX=-0.005;entryY=0.299;entryDx=0;entryDy=0;entryPerimeter=0;" parent="WIyWlLk6GJQsqaUBKTNV-1" source="oAeWeOyywlavheIQp_EQ-51" target="fwNFfMyw5ERBlZHOY2xI-28" edge="1">
          <mxGeometry relative="1" as="geometry" />
        </mxCell>
        <mxCell id="fwNFfMyw5ERBlZHOY2xI-46" value="Shopping" style="html=1;whiteSpace=wrap;fontSize=14;fontStyle=1" parent="WIyWlLk6GJQsqaUBKTNV-1" vertex="1">
          <mxGeometry x="425" y="480" width="110" height="50" as="geometry" />
        </mxCell>
      </root>
    </mxGraphModel>
  </diagram>
</mxfile>
